<svg xmlns="http://www.w3.org/2000/svg" width="94" height="18" viewBox="0 0 94 18" fill="none">
  <path d="M9 0L11.0206 6.21885H17.5595L12.2694 10.0623L14.2901 16.2812L9 12.4377L3.70993 16.2812L5.73056 10.0623L0.440492 6.21885H6.97937L9 0Z" fill="#EFAB29"/>
  <path d="M28 0L30.0206 6.21885H36.5595L31.2694 10.0623L33.2901 16.2812L28 12.4377L22.7099 16.2812L24.7306 10.0623L19.4405 6.21885H25.9794L28 0Z" fill="#EFAB29"/>
  <path d="M47 0L49.0206 6.21885H55.5595L50.2694 10.0623L52.2901 16.2812L47 12.4377L41.7099 16.2812L43.7306 10.0623L38.4405 6.21885H44.9794L47 0Z" fill="#EFAB29"/>
  <path d="M66 0.809018L67.7829 6.2961L67.839 6.46885H68.0206H73.7901L69.1225 9.86005L68.9755 9.96681L69.0317 10.1396L70.8145 15.6266L66.1469 12.2354L66 12.1287L65.8531 12.2354L61.1855 15.6266L62.9683 10.1396L63.0245 9.96681L62.8775 9.86005L58.2099 6.46885H63.9794H64.161L64.2171 6.2961L66 0.809018Z" fill="#EFFCF1" stroke="#EFAB29" stroke-width="0.5"/>
  <path d="M85 0.809018L86.7829 6.2961L86.839 6.46885H87.0206H92.7901L88.1225 9.86005L87.9755 9.96681L88.0317 10.1396L89.8145 15.6266L85.1469 12.2354L85 12.1287L84.8531 12.2354L80.1855 15.6266L81.9683 10.1396L82.0245 9.96681L81.8775 9.86005L77.2099 6.46885H82.9794H83.161L83.2171 6.2961L85 0.809018Z" fill="#EFFCF1" stroke="#EFAB29" stroke-width="0.5"/>
</svg>